# xmcd
#
# Track frame offsets:
#	150
#	12458
#	26756
#	44734
#	64286
#	78944
#	93875
#	109055
#	126600
#	162253
#	202783
#	228571
#
# Disc length: 3527 seconds
#
# Revision: 0
# Processed by: cddbd v1.4PL0 Copyright (c) Steve Scherf et al.
# Submitted via: EasyCDDAExtractor 4.5.2.1
#
DISCID=a10dc50c
DTITLE=Johnny Winter - Rock 'n' Roll Hoochie Coo
DYEAR=1978
DGENRE=Blues
TTITLE0=Rock And Roll People
TTITLE1=Am I Here
TTITLE2=Lay Down Your Sorrows
TTITLE3=No Time To Live
TTITLE4=Guess I'll Go Away
TTITLE5=Rock 'n' Roll Hoochie Coo
TTITLE6=On The Limb
TTITLE7=Stranger
TTITLE8=Somethin' Goin' On Wrong
TTITLE9=Wipeout
TTITLE10=Brown Eyed Handsome Man
TTITLE11=In The Wee Wee Hours
EXTD=
EXTT0=
EXTT1=
EXTT2=
EXTT3=
EXTT4=
EXTT5=
EXTT6=
EXTT7=
EXTT8=
EXTT9=
EXTT10=
EXTT11=
PLAYORDER=
